<?xml version="1.0" encoding="UTF-8"?>
<svg xmlns="http://www.w3.org/2000/svg" xmlns:xlink="http://www.w3.org/1999/xlink" width="365pt" height="107.2pt" viewBox="0 0 365 107.2" version="1.1">
<defs>
<clipPath id="clip1">
  <path d="M 117 54 L 154 54 L 154 107.199219 L 117 107.199219 Z M 117 54 "/>
</clipPath>
</defs>
<g id="surface1">
<path style=" stroke:none;fill-rule:nonzero;fill:rgb(47.099304%,17.599487%,56.098938%);fill-opacity:1;" d="M 62.414063 71.882813 C 63.210938 74.832031 64.476563 77.453125 66.21875 79.8125 C 67.925781 82.171875 70.136719 84.058594 72.851563 85.472656 C 75.5625 86.886719 78.777344 87.59375 82.488281 87.59375 C 86.234375 87.59375 89.449219 86.886719 92.128906 85.472656 C 94.84375 84.058594 97.054688 82.171875 98.765625 79.8125 C 100.472656 77.453125 101.742188 74.832031 102.566406 71.882813 C 103.363281 68.933594 103.773438 65.957031 103.773438 62.949219 C 103.773438 59.945313 103.363281 56.964844 102.566406 54.019531 C 101.769531 51.070313 100.503906 48.445313 98.765625 46.085938 C 97.054688 43.730469 94.8125 41.84375 92.128906 40.425781 C 89.417969 39.011719 86.203125 38.277344 82.488281 38.277344 C 78.746094 38.277344 75.53125 38.984375 72.851563 40.425781 C 70.136719 41.84375 67.925781 43.730469 66.21875 46.085938 C 64.507813 48.445313 63.238281 51.070313 62.414063 54.019531 C 61.617188 56.964844 61.207031 59.914063 61.207031 62.949219 C 61.207031 65.988281 61.589844 68.933594 62.414063 71.882813 Z M 54.898438 51.15625 C 56.136719 47.386719 57.992188 44.054688 60.4375 41.136719 C 62.914063 38.246094 65.980469 35.917969 69.636719 34.175781 C 73.320313 32.4375 77.597656 31.582031 82.460938 31.582031 C 87.324219 31.582031 91.597656 32.4375 95.285156 34.175781 C 98.96875 35.917969 102.035156 38.214844 104.484375 41.136719 C 106.960938 44.023438 108.785156 47.386719 110.023438 51.15625 C 111.261719 54.929688 111.882813 58.851563 111.882813 62.921875 C 111.882813 66.988281 111.261719 70.910156 110.023438 74.683594 C 108.785156 78.457031 106.929688 81.789063 104.484375 84.707031 C 102.007813 87.59375 98.941406 89.925781 95.285156 91.605469 C 91.597656 93.316406 87.324219 94.167969 82.460938 94.167969 C 77.597656 94.167969 73.320313 93.316406 69.636719 91.605469 C 65.953125 89.894531 62.886719 87.59375 60.4375 84.707031 C 57.964844 81.789063 56.136719 78.457031 54.898438 74.683594 C 53.660156 70.910156 53.039063 66.988281 53.039063 62.921875 C 53.039063 58.851563 53.660156 54.929688 54.898438 51.15625 "/>
<g clip-path="url(#clip1)" clip-rule="nonzero">
<path style=" stroke:none;fill-rule:nonzero;fill:rgb(47.099304%,17.599487%,56.098938%);fill-opacity:1;" d="M 146.847656 73.59375 C 146.847656 71.851563 146.609375 70.113281 146.136719 68.464844 C 145.667969 66.78125 144.960938 65.28125 144.015625 63.980469 C 143.070313 62.65625 141.863281 61.625 140.359375 60.855469 C 138.886719 60.089844 137.148438 59.679688 135.140625 59.679688 C 133.050781 59.679688 131.28125 60.089844 129.804688 60.914063 C 128.332031 61.742188 127.152344 62.832031 126.238281 64.160156 C 125.324219 65.484375 124.648438 67.019531 124.234375 68.726563 C 123.820313 70.4375 123.613281 72.148438 123.613281 73.917969 C 123.613281 75.773438 123.820313 77.542969 124.265625 79.28125 C 124.707031 81.023438 125.382813 82.523438 126.355469 83.851563 C 127.300781 85.179688 128.539063 86.210938 130.042969 87.035156 C 131.546875 87.832031 133.371094 88.246094 135.523438 88.246094 C 137.617188 88.246094 139.386719 87.832031 140.859375 87.007813 C 142.335938 86.179688 143.484375 85.089844 144.367188 83.734375 C 145.253906 82.378906 145.871094 80.816406 146.257813 79.078125 C 146.640625 77.25 146.847656 75.449219 146.847656 73.59375 Z M 117.632813 55.050781 L 123.820313 55.050781 L 123.820313 60.148438 L 123.96875 60.148438 C 125 58.054688 126.59375 56.523438 128.773438 55.582031 C 130.957031 54.636719 133.371094 54.164063 135.996094 54.164063 C 138.914063 54.164063 141.449219 54.695313 143.632813 55.757813 C 145.785156 56.820313 147.582031 58.261719 149.027344 60.089844 C 150.472656 61.917969 151.53125 64.011719 152.269531 66.398438 C 153.007813 68.789063 153.359375 71.324219 153.359375 73.976563 C 153.359375 76.660156 153.007813 79.195313 152.300781 81.550781 C 151.59375 83.941406 150.53125 86.003906 149.085938 87.800781 C 147.640625 89.570313 145.84375 90.984375 143.691406 92.046875 C 141.539063 93.078125 139.003906 93.609375 136.144531 93.609375 C 135.171875 93.609375 134.109375 93.523438 133.019531 93.316406 C 131.898438 93.109375 130.777344 92.785156 129.660156 92.34375 C 128.539063 91.871094 127.476563 91.28125 126.476563 90.515625 C 125.472656 89.746094 124.648438 88.835938 123.96875 87.714844 L 123.820313 87.714844 L 123.820313 107.199219 L 117.632813 107.199219 L 117.632813 55.050781 "/>
</g>
<path style=" stroke:none;fill-rule:nonzero;fill:rgb(47.099304%,17.599487%,56.098938%);fill-opacity:1;" d="M 186.113281 70.320313 C 186.023438 68.847656 185.699219 67.460938 185.140625 66.164063 C 184.582031 64.835938 183.8125 63.71875 182.871094 62.773438 C 181.925781 61.832031 180.777344 61.0625 179.480469 60.503906 C 178.152344 59.945313 176.769531 59.679688 175.234375 59.679688 C 173.644531 59.679688 172.167969 59.972656 170.902344 60.503906 C 169.605469 61.0625 168.515625 61.832031 167.570313 62.800781 C 166.65625 63.777344 165.921875 64.894531 165.390625 66.195313 C 164.859375 67.488281 164.535156 68.847656 164.445313 70.320313 Z M 192.15625 80.816406 C 191.332031 85 189.503906 88.183594 186.675781 90.367188 C 183.84375 92.546875 180.277344 93.640625 176.003906 93.640625 C 172.964844 93.640625 170.371094 93.136719 168.132813 92.136719 C 165.921875 91.132813 164.03125 89.777344 162.527344 88.007813 C 161.027344 86.269531 159.875 84.175781 159.140625 81.730469 C 158.371094 79.28125 157.960938 76.660156 157.871094 73.769531 C 157.871094 70.941406 158.3125 68.34375 159.199219 65.925781 C 160.082031 63.511719 161.289063 61.445313 162.882813 59.679688 C 164.476563 57.9375 166.332031 56.554688 168.515625 55.582031 C 170.664063 54.605469 173.054688 54.105469 175.617188 54.105469 C 178.980469 54.105469 181.75 54.8125 183.960938 56.199219 C 186.171875 57.585938 187.941406 59.351563 189.296875 61.476563 C 190.625 63.628906 191.566406 65.957031 192.070313 68.492188 C 192.570313 71.027344 192.777344 73.445313 192.6875 75.714844 L 164.445313 75.714844 C 164.386719 77.367188 164.59375 78.929688 165.035156 80.433594 C 165.476563 81.90625 166.183594 83.234375 167.15625 84.382813 C 168.132813 85.53125 169.367188 86.445313 170.871094 87.125 C 172.375 87.800781 174.144531 88.15625 176.207031 88.15625 C 178.773438 88.15625 180.925781 87.535156 182.636719 86.328125 C 184.34375 85.121094 185.464844 83.261719 185.996094 80.785156 L 192.15625 80.785156 L 192.15625 80.816406 "/>
<path style=" stroke:none;fill-rule:nonzero;fill:rgb(47.099304%,17.599487%,56.098938%);fill-opacity:1;" d="M 198.644531 55.050781 L 204.480469 55.050781 L 204.480469 61.035156 L 204.628906 61.035156 C 205.953125 58.707031 207.632813 56.964844 209.699219 55.84375 C 211.761719 54.726563 214.148438 54.164063 216.890625 54.164063 C 219.367188 54.164063 221.429688 54.519531 223.082031 55.195313 C 224.734375 55.875 226.058594 56.820313 227.089844 58.054688 C 228.121094 59.265625 228.832031 60.710938 229.242188 62.390625 C 229.65625 64.070313 229.863281 65.925781 229.863281 67.960938 L 229.863281 92.785156 L 223.671875 92.785156 L 223.671875 67.253906 C 223.671875 64.925781 222.992188 63.070313 221.636719 61.710938 C 220.28125 60.355469 218.394531 59.679688 216.007813 59.679688 C 214.121094 59.679688 212.46875 59.972656 211.082031 60.5625 C 209.699219 61.152344 208.546875 61.976563 207.605469 63.039063 C 206.691406 64.101563 205.984375 65.367188 205.511719 66.78125 C 205.039063 68.226563 204.804688 69.789063 204.804688 71.5 L 204.804688 92.8125 L 198.613281 92.8125 L 198.613281 55.050781 L 198.644531 55.050781 "/>
<path style=" stroke:none;fill-rule:nonzero;fill:rgb(47.099304%,17.599487%,56.098938%);fill-opacity:1;" d="M 306.601563 60.03125 L 321.015625 60.03125 C 323.964844 60.03125 326.234375 59.351563 327.765625 58.027344 C 329.300781 56.699219 330.066406 54.519531 330.066406 51.480469 C 330.066406 48.5625 329.300781 46.46875 327.765625 45.144531 C 326.234375 43.816406 323.992188 43.167969 321.015625 43.167969 L 306.601563 43.167969 Z M 293.421875 32.941406 L 325.703125 32.941406 C 328.386719 32.941406 330.804688 33.382813 332.953125 34.234375 C 335.105469 35.089844 336.964844 36.300781 338.496094 37.804688 C 340.03125 39.308594 341.210938 41.074219 342.003906 43.082031 C 342.800781 45.085938 343.214844 47.207031 343.214844 49.449219 C 343.214844 52.957031 342.476563 56.023438 341.003906 58.585938 C 339.527344 61.152344 337.113281 63.128906 333.75 64.453125 L 333.75 64.632813 C 335.371094 65.074219 336.699219 65.75 337.789063 66.695313 C 338.851563 67.609375 339.707031 68.726563 340.382813 69.996094 C 341.0625 71.292969 341.535156 72.679688 341.859375 74.152344 C 342.152344 75.628906 342.390625 77.128906 342.476563 78.632813 C 342.535156 79.578125 342.59375 80.699219 342.652344 81.996094 C 342.714844 83.292969 342.800781 84.589844 342.949219 85.886719 C 343.097656 87.210938 343.300781 88.480469 343.628906 89.6875 C 343.921875 90.925781 344.394531 91.960938 345.011719 92.785156 L 331.863281 92.785156 C 331.480469 91.839844 331.1875 90.78125 330.980469 89.628906 C 330.773438 88.480469 330.625 87.273438 330.480469 86.03125 C 330.332031 84.765625 330.214844 83.496094 330.152344 82.171875 C 330.066406 80.84375 329.949219 79.605469 329.769531 78.425781 C 329.328125 75.300781 328.386719 73.003906 326.910156 71.558594 C 325.46875 70.113281 323.078125 69.378906 319.777344 69.378906 L 306.628906 69.378906 L 306.628906 92.753906 L 293.480469 92.753906 L 293.480469 32.941406 L 293.421875 32.941406 "/>
<path style=" stroke:none;fill-rule:nonzero;fill:rgb(47.099304%,17.599487%,56.098938%);fill-opacity:1;" d="M 38.59375 52.984375 C 46.347656 25.539063 101.210938 12.449219 161.144531 23.742188 C 197.109375 30.523438 224.820313 45.644531 245.722656 59.882813 C 230.070313 37.066406 190.507813 10.03125 135.671875 2.574219 C 70.167969 -6.359375 6.8125 8.558594 0.503906 37.507813 C -4.035156 58.441406 22.4375 81.109375 62.179688 95.347656 C 43.960938 82.378906 34.585938 67.164063 38.59375 52.984375 "/>
<path style=" stroke:none;fill-rule:nonzero;fill:rgb(47.099304%,17.599487%,56.098938%);fill-opacity:1;" d="M 270.898438 64.453125 L 253.59375 64.453125 L 233.8125 92.785156 L 248.671875 92.785156 L 261.996094 73.0625 L 275.054688 92.785156 L 290.738281 92.785156 L 270.898438 64.453125 "/>
<path style=" stroke:none;fill-rule:nonzero;fill:rgb(47.099304%,17.599487%,56.098938%);fill-opacity:1;" d="M 258.898438 60.003906 L 270.898438 60.003906 L 289.089844 32.941406 L 274.671875 32.941406 L 262.703125 51.777344 C 243.570313 24.597656 215.445313 13.6875 190.242188 10.0625 C 219.484375 22.207031 242.15625 40.722656 253.621094 60.003906 L 258.898438 60.003906 "/>
<path style=" stroke:none;fill-rule:nonzero;fill:rgb(47.099304%,17.599487%,56.098938%);fill-opacity:1;" d="M 355.980469 87.125 L 353.796875 87.125 L 353.796875 92.8125 L 351.910156 92.8125 L 351.910156 87.125 L 349.699219 87.125 L 349.699219 85.472656 L 355.980469 85.472656 L 355.980469 87.125 "/>
<path style=" stroke:none;fill-rule:nonzero;fill:rgb(47.099304%,17.599487%,56.098938%);fill-opacity:1;" d="M 356.835938 85.472656 L 359.664063 85.472656 L 360.902344 90.367188 L 360.933594 90.367188 L 362.199219 85.472656 L 365 85.472656 L 365 92.8125 L 363.203125 92.8125 L 363.203125 87.242188 L 361.640625 92.8125 L 360.195313 92.8125 L 358.660156 87.242188 L 358.632813 87.242188 L 358.632813 92.8125 L 356.835938 92.8125 L 356.835938 85.472656 "/>
</g>
</svg>
