<?xml version="1.0" encoding="UTF-8"?><svg id="a" xmlns="http://www.w3.org/2000/svg" viewBox="0 0 128 128"><path d="M64,30.33C28.65,30.33,0,45.41,0,64s28.65,33.67,64,33.67,64-15.07,64-33.67S99.35,30.33,64,30.33Zm-5.98,9.81h7.29s-1.74,8.97-1.74,8.97h6.5c4.09,0,6.91,.71,8.46,2.14,1.55,1.43,2.02,3.74,1.4,6.93l-3.05,15.7h-7.41l2.9-14.93c.33-1.7,.21-2.85-.36-3.47-.57-.62-1.79-.92-3.66-.92h-5.83l-3.76,19.33h-7.29s6.56-33.74,6.56-33.74Zm-31.29,8.97h14.13c4.25,0,7.35,1.12,9.31,3.35s2.54,5.35,1.76,9.35c-.32,1.65-.86,3.15-1.62,4.52-.76,1.36-1.76,2.61-2.99,3.75-1.47,1.37-3.1,2.35-4.89,2.94-1.79,.58-4.08,.88-6.86,.88h-6.29l-1.75,8.97h-7.35s6.56-33.74,6.56-33.74Zm57.37,0h14.13c4.25,0,7.35,1.12,9.3,3.35h0c1.95,2.23,2.54,5.35,1.76,9.35-.32,1.65-.86,3.15-1.62,4.52-.76,1.36-1.76,2.61-2.99,3.75-1.47,1.37-3.1,2.35-4.89,2.94-1.79,.58-4.08,.88-6.86,.88h-6.29l-1.74,8.97h-7.35s6.56-33.74,6.56-33.74Zm-51.05,5.33l-2.74,14.12h4.47c2.96,0,5.17-.56,6.62-1.67,1.45-1.12,2.43-2.98,2.94-5.59,.49-2.51,.26-4.28-.67-5.31-.93-1.03-2.79-1.55-5.58-1.55h-5.03Zm57.36,0l-2.74,14.12h4.47c2.96,0,5.17-.56,6.62-1.67,1.45-1.12,2.43-2.98,2.93-5.59,.49-2.51,.27-4.28-.66-5.31-.93-1.03-2.79-1.55-5.58-1.55h-5.03Z" style="fill:#6e71b2;"/></svg>