<?xml version="1.0" encoding="UTF-8"?><svg id="a" xmlns="http://www.w3.org/2000/svg" viewBox="0 0 128 128"><path d="M63.99,128l51.7-29.85-19.82-11.46-20.26,11.7c-.35,.19-.78,.19-1.12,0-.35-.2-.56-.57-.57-.97v-27.8c0-.82,.42-1.56,1.13-1.97l24.07-13.9c.35-.2,.78-.2,1.12,0,.35,.19,.57,.56,.58,.97v23.4l19.83,11.45V29.85L63.99,62.57v65.43Z" style="fill:#fff;"/><path d="M52.4,98.4l-20.27-11.72-19.83,11.46,51.7,29.86V62.57L7.34,29.85v59.71l19.83-11.45v-23.4c0-.4,.23-.77,.57-.97,.35-.2,.78-.21,1.13,0l24.09,13.9c.7,.41,1.13,1.16,1.13,1.97v27.8c0,.4-.22,.77-.56,.98-.35,.2-.77,.21-1.12,.01" style="fill:#b1b1b1;"/><path d="M68.96,0V22.9l20.26,11.7c.35,.2,.56,.58,.56,.98s-.21,.77-.56,.97l-24.08,13.91c-.7,.4-1.57,.4-2.27,0l-24.08-13.91c-.35-.2-.56-.57-.56-.97,0-.4,.21-.78,.56-.98l20.26-11.7V0L7.34,29.85,63.99,62.57,120.66,29.86,68.96,0Z" style="fill:#747474;"/></svg>